<svg width="142" height="43" viewBox="0 0 142 43" fill="none" xmlns="http://www.w3.org/2000/svg">
<rect y="-0.000244141" width="142" height="43" rx="16" fill="white"/>
<g clip-path="url(#clip0_3601_615)">
<path d="M33 29.8997L37.95 24.9497C38.9289 23.9707 39.5955 22.7234 39.8656 21.3656C40.1356 20.0077 39.9969 18.6003 39.4671 17.3212C38.9373 16.0422 38.04 14.949 36.8889 14.1798C35.7378 13.4107 34.3844 13.0002 33 13.0002C31.6156 13.0002 30.2622 13.4107 29.1111 14.1798C27.96 14.949 27.0628 16.0422 26.5329 17.3212C26.0031 18.6003 25.8644 20.0077 26.1345 21.3656C26.4045 22.7234 27.0711 23.9707 28.05 24.9497L33 29.8997ZM33 32.7277L26.636 26.3637C25.3773 25.105 24.5202 23.5014 24.1729 21.7555C23.8257 20.0097 24.0039 18.2001 24.6851 16.5556C25.3663 14.9111 26.5198 13.5054 27.9999 12.5165C29.4799 11.5276 31.22 10.9998 33 10.9998C34.78 10.9998 36.5201 11.5276 38.0001 12.5165C39.4802 13.5054 40.6337 14.9111 41.3149 16.5556C41.9961 18.2001 42.1743 20.0097 41.8271 21.7555C41.4798 23.5014 40.6227 25.105 39.364 26.3637L33 32.7277ZM33 21.9997C33.5304 21.9997 34.0391 21.789 34.4142 21.4139C34.7893 21.0388 35 20.5301 35 19.9997C35 19.4692 34.7893 18.9605 34.4142 18.5855C34.0391 18.2104 33.5304 17.9997 33 17.9997C32.4696 17.9997 31.9609 18.2104 31.5858 18.5855C31.2107 18.9605 31 19.4692 31 19.9997C31 20.5301 31.2107 21.0388 31.5858 21.4139C31.9609 21.789 32.4696 21.9997 33 21.9997ZM33 23.9997C31.9391 23.9997 30.9217 23.5783 30.1716 22.8281C29.4214 22.078 29 21.0605 29 19.9997C29 18.9388 29.4214 17.9214 30.1716 17.1713C30.9217 16.4211 31.9391 15.9997 33 15.9997C34.0609 15.9997 35.0783 16.4211 35.8284 17.1713C36.5786 17.9214 37 18.9388 37 19.9997C37 21.0605 36.5786 22.078 35.8284 22.8281C35.0783 23.5783 34.0609 23.9997 33 23.9997Z" fill="#1C1917"/>
</g>
<path d="M51.7031 26.9998L55.5625 21.3279L51.75 15.7263H53.4453L56.4141 20.2107H56.5391L59.5547 15.7263H61.1562L57.25 21.3904L61.0703 26.9998H59.3828L56.4297 22.5544H56.3047L53.2969 26.9998H51.7031ZM65.5625 25.9685C66.2552 25.9685 66.8281 25.768 67.2812 25.3669C67.7396 24.9659 67.9688 24.4633 67.9688 23.8591V23.0857L65.7031 23.2341C65.0677 23.2758 64.6016 23.4086 64.3047 23.6326C64.0078 23.8565 63.8594 24.182 63.8594 24.6091C63.8594 25.031 64.0182 25.3643 64.3359 25.6091C64.6536 25.8487 65.0625 25.9685 65.5625 25.9685ZM65.3125 27.1482C64.4844 27.1482 63.8021 26.9216 63.2656 26.4685C62.7344 26.0102 62.4688 25.4008 62.4688 24.6404C62.4688 23.8904 62.7344 23.3018 63.2656 22.8748C63.7969 22.4477 64.5547 22.2055 65.5391 22.1482L67.9688 21.9998V21.2341C67.9688 20.7133 67.8073 20.3149 67.4844 20.0388C67.1615 19.7628 66.6875 19.6248 66.0625 19.6248C65.5573 19.6248 65.138 19.7159 64.8047 19.8982C64.4714 20.0805 64.2578 20.3383 64.1641 20.6716H62.8047C62.8932 19.9998 63.2396 19.4581 63.8438 19.0466C64.4531 18.6352 65.2083 18.4294 66.1094 18.4294C67.1302 18.4294 67.9193 18.6768 68.4766 19.1716C69.0339 19.6664 69.3125 20.3539 69.3125 21.2341V26.9998H68.0312V25.7576H67.9062C67.6354 26.2055 67.276 26.5492 66.8281 26.7888C66.3802 27.0284 65.875 27.1482 65.3125 27.1482ZM71.7969 26.9998V18.5779H73.0781V19.8279H73.2031C73.3281 19.4164 73.6094 19.0805 74.0469 18.8201C74.4844 18.5597 74.9818 18.4294 75.5391 18.4294C75.7943 18.4294 76.0182 18.4425 76.2109 18.4685V19.8123C76.0286 19.7602 75.7422 19.7341 75.3516 19.7341C74.7109 19.7341 74.1823 19.9268 73.7656 20.3123C73.349 20.6977 73.1406 21.1873 73.1406 21.781V26.9998H71.7969ZM77.9219 26.9998V18.5779H79.2656V26.9998H77.9219ZM79.2578 16.5935C79.0755 16.7758 78.8542 16.8669 78.5938 16.8669C78.3333 16.8669 78.112 16.7758 77.9297 16.5935C77.7474 16.406 77.6562 16.1847 77.6562 15.9294C77.6562 15.6742 77.7474 15.4555 77.9297 15.2732C78.112 15.0857 78.3333 14.9919 78.5938 14.9919C78.8542 14.9919 79.0755 15.0857 79.2578 15.2732C79.4401 15.4555 79.5312 15.6742 79.5312 15.9294C79.5312 16.1847 79.4401 16.406 79.2578 16.5935ZM82.3906 16.3982H83.7344V18.5779H85.6094V19.7029H83.7344V24.4685C83.7344 24.9633 83.8333 25.3227 84.0312 25.5466C84.2292 25.7706 84.5469 25.8826 84.9844 25.8826C85.1771 25.8826 85.3854 25.8722 85.6094 25.8513V26.9841C85.3125 27.0362 85.0495 27.0623 84.8203 27.0623C83.9505 27.0623 83.3281 26.8878 82.9531 26.5388C82.5781 26.1899 82.3906 25.6143 82.3906 24.8123V19.7029H81.0312V18.5779H82.3906V16.3982ZM90.2344 25.9685C90.9271 25.9685 91.5 25.768 91.9531 25.3669C92.4115 24.9659 92.6406 24.4633 92.6406 23.8591V23.0857L90.375 23.2341C89.7396 23.2758 89.2734 23.4086 88.9766 23.6326C88.6797 23.8565 88.5312 24.182 88.5312 24.6091C88.5312 25.031 88.6901 25.3643 89.0078 25.6091C89.3255 25.8487 89.7344 25.9685 90.2344 25.9685ZM89.9844 27.1482C89.1562 27.1482 88.474 26.9216 87.9375 26.4685C87.4062 26.0102 87.1406 25.4008 87.1406 24.6404C87.1406 23.8904 87.4062 23.3018 87.9375 22.8748C88.4688 22.4477 89.2266 22.2055 90.2109 22.1482L92.6406 21.9998V21.2341C92.6406 20.7133 92.4792 20.3149 92.1562 20.0388C91.8333 19.7628 91.3594 19.6248 90.7344 19.6248C90.2292 19.6248 89.8099 19.7159 89.4766 19.8982C89.1432 20.0805 88.9297 20.3383 88.8359 20.6716H87.4766C87.5651 19.9998 87.9115 19.4581 88.5156 19.0466C89.125 18.6352 89.8802 18.4294 90.7812 18.4294C91.8021 18.4294 92.5911 18.6768 93.1484 19.1716C93.7057 19.6664 93.9844 20.3539 93.9844 21.2341V26.9998H92.7031V25.7576H92.5781C92.3073 26.2055 91.9479 26.5492 91.5 26.7888C91.0521 27.0284 90.5469 27.1482 89.9844 27.1482ZM99.5859 27.1482C98.5078 27.1482 97.6484 26.7524 97.0078 25.9607C96.3672 25.169 96.0469 24.1117 96.0469 22.7888C96.0469 21.4711 96.3672 20.4164 97.0078 19.6248C97.6536 18.8279 98.513 18.4294 99.5859 18.4294C100.174 18.4294 100.701 18.5623 101.164 18.8279C101.633 19.0883 101.987 19.4477 102.227 19.906H102.344V15.2341H103.688V26.9998H102.406V25.656H102.281C102.016 26.1248 101.646 26.4919 101.172 26.7576C100.698 27.018 100.169 27.1482 99.5859 27.1482ZM99.8984 19.6404C99.1328 19.6404 98.5312 19.9216 98.0938 20.4841C97.6562 21.0414 97.4375 21.8097 97.4375 22.7888C97.4375 23.7732 97.6536 24.544 98.0859 25.1013C98.5234 25.6586 99.1276 25.9373 99.8984 25.9373C100.664 25.9373 101.268 25.656 101.711 25.0935C102.154 24.531 102.375 23.7628 102.375 22.7888C102.375 21.8253 102.151 21.0597 101.703 20.4919C101.26 19.9242 100.659 19.6404 99.8984 19.6404ZM108.891 25.9685C109.583 25.9685 110.156 25.768 110.609 25.3669C111.068 24.9659 111.297 24.4633 111.297 23.8591V23.0857L109.031 23.2341C108.396 23.2758 107.93 23.4086 107.633 23.6326C107.336 23.8565 107.188 24.182 107.188 24.6091C107.188 25.031 107.346 25.3643 107.664 25.6091C107.982 25.8487 108.391 25.9685 108.891 25.9685ZM108.641 27.1482C107.812 27.1482 107.13 26.9216 106.594 26.4685C106.062 26.0102 105.797 25.4008 105.797 24.6404C105.797 23.8904 106.062 23.3018 106.594 22.8748C107.125 22.4477 107.883 22.2055 108.867 22.1482L111.297 21.9998V21.2341C111.297 20.7133 111.135 20.3149 110.812 20.0388C110.49 19.7628 110.016 19.6248 109.391 19.6248C108.885 19.6248 108.466 19.7159 108.133 19.8982C107.799 20.0805 107.586 20.3383 107.492 20.6716H106.133C106.221 19.9998 106.568 19.4581 107.172 19.0466C107.781 18.6352 108.536 18.4294 109.438 18.4294C110.458 18.4294 111.247 18.6768 111.805 19.1716C112.362 19.6664 112.641 20.3539 112.641 21.2341V26.9998H111.359V25.7576H111.234C110.964 26.2055 110.604 26.5492 110.156 26.7888C109.708 27.0284 109.203 27.1482 108.641 27.1482Z" fill="#1C1917"/>
<defs>
<clipPath id="clip0_3601_615">
<rect width="24" height="24" fill="white" transform="translate(21 8.99976)"/>
</clipPath>
</defs>
</svg>
