<svg width="30" height="24" viewBox="0 0 30 24" fill="none" xmlns="http://www.w3.org/2000/svg">
<path d="M28.3327 1.34668C26.9993 2.00002 25.6927 2.26535 24.3327 2.66668C22.838 0.980018 20.622 0.886684 18.4927 1.68402C16.3633 2.48135 14.9687 4.43068 14.9993 6.66668V8.00002C10.6727 8.11068 6.81935 6.14002 4.33268 2.66668C4.33268 2.66668 -1.24332 12.5774 9.66602 17.3334C7.17002 18.996 4.68068 20.1174 1.66602 20C6.07668 22.404 10.8833 23.2307 15.0447 22.0227C19.818 20.636 23.7407 17.0587 25.246 11.7C25.6951 10.0702 25.918 8.3865 25.9087 6.69602C25.906 6.36402 27.922 3.00002 28.3327 1.34535V1.34668Z" stroke="#1C1917" stroke-width="2" stroke-linecap="round" stroke-linejoin="round"/>
</svg>
